<?xml version="1.0" standalone="no"?>
<!DOCTYPE svg PUBLIC "-//W3C//DTD SVG 20010904//EN"
 "http://www.w3.org/TR/2001/REC-SVG-20010904/DTD/svg10.dtd">
<svg version="1.0" xmlns="http://www.w3.org/2000/svg"
 width="500.000000pt" height="500.000000pt" viewBox="0 0 500.000000 500.000000"
 preserveAspectRatio="xMidYMid meet">

<g transform="translate(0.000000,500.000000) scale(0.100000,-0.100000)"
fill="#000000" stroke="none">
<path d="M2220 4945 c-752 -98 -1378 -479 -1786 -1088 -121 -179 -230 -403
-297 -612 -203 -628 -146 -1346 151 -1916 220 -422 552 -774 947 -1006 247
-144 486 -234 780 -293 l149 -30 397 0 c386 0 400 1 520 26 345 71 652 210
933 423 532 404 884 1045 951 1727 27 289 27 274 6 274 -17 0 -20 -11 -26 -97
-10 -161 -44 -391 -75 -513 -137 -541 -437 -1005 -869 -1341 -138 -107 -342
-224 -517 -297 -180 -74 -429 -138 -619 -158 -123 -13 -413 -7 -524 10 -57 9
-105 17 -107 18 -1 2 0 16 3 31 4 22 9 26 25 21 53 -16 97 33 83 95 -7 31 -14
35 -82 46 l-41 6 -7 -43 c-18 -122 -26 -149 -43 -144 -9 2 -34 7 -54 10 -50 9
-257 76 -338 111 -412 173 -751 451 -1023 837 -26 37 -47 70 -47 73 0 4 -8 19
-19 33 -70 101 -182 341 -241 519 -44 133 -88 338 -107 493 -22 188 -14 557
16 723 48 271 111 466 231 712 83 168 175 309 314 478 98 118 234 248 378 360
64 51 226 151 328 204 224 116 437 186 688 225 204 32 496 31 692 -1 618 -103
1157 -450 1522 -981 58 -84 208 -347 208 -365 0 -3 12 -32 26 -63 100 -216
178 -562 199 -884 6 -82 10 -98 24 -98 15 0 16 12 9 128 -11 188 -25 304 -54
427 -124 536 -353 941 -739 1305 -266 251 -613 445 -955 535 -314 82 -737 116
-1010 80z m-614 -246 c-21 -11 -43 -18 -49 -16 -16 5 42 36 68 37 13 0 7 -7
-19 -21z m-76 -39 c0 -5 -5 -10 -10 -10 -6 0 -61 -34 -123 -75 -90 -60 -121
-75 -150 -75 -20 0 -37 4 -37 9 0 9 230 139 270 154 25 9 50 8 50 -3z m-270
-177 c0 -5 -21 -23 -46 -42 -24 -18 -75 -62 -113 -97 l-69 -64 -67 0 c-42 0
-64 4 -60 10 10 16 138 113 225 170 32 21 57 30 88 30 23 0 42 -3 42 -7z
m-303 -223 c24 0 43 -4 41 -9 -1 -5 -34 -44 -73 -87 -38 -42 -77 -89 -86 -103
-38 -61 -58 -71 -136 -64 l-72 6 21 30 c44 61 230 238 245 233 8 -3 35 -6 60
-6z m-187 -284 c0 -2 -22 -36 -48 -77 -27 -41 -64 -100 -83 -131 l-34 -58 -65
1 c-36 1 -75 4 -87 7 -22 7 -22 8 17 67 60 92 100 147 125 175 22 23 30 25 99
22 42 -2 76 -5 76 -6z m-234 -276 c30 0 54 -4 54 -9 0 -5 -25 -62 -56 -127
-31 -65 -60 -129 -65 -142 -8 -22 -14 -24 -47 -18 -20 3 -61 6 -89 6 -41 0
-53 4 -53 15 0 16 49 118 108 223 33 60 36 64 65 58 16 -3 54 -6 83 -6z m-145
-306 l66 -7 -28 -86 c-16 -47 -36 -112 -45 -143 l-15 -58 -100 0 c-88 0 -99 2
-99 18 0 22 63 210 84 251 18 34 24 35 137 25z m-37 -312 c3 -5 -4 -58 -14
-118 -11 -60 -22 -124 -25 -141 l-6 -33 -100 0 c-72 0 -101 4 -105 13 -4 12
25 168 47 250 l10 37 94 0 c52 0 96 -4 99 -8z m-50 -337 c-1 -16 -5 -83 -9
-147 l-8 -118 -42 0 c-23 0 -70 3 -105 7 l-63 6 7 121 c11 182 0 167 120 164
l101 -3 -1 -30z m-11 -387 c4 -62 10 -146 13 -186 l7 -73 -104 3 -103 3 -8 35
c-4 19 -10 101 -14 183 l-7 147 105 0 105 0 6 -112z m22 -277 c3 -6 14 -58 25
-118 11 -59 28 -138 39 -175 11 -37 16 -70 13 -72 -4 -2 -50 -1 -103 1 l-96 6
-16 46 c-19 55 -67 269 -67 300 0 20 5 21 99 21 55 0 102 -4 106 -9z m39 -379
l48 -7 47 -130 c26 -71 57 -149 69 -172 29 -55 28 -65 -5 -59 -16 2 -58 5 -95
5 l-68 1 -30 59 c-16 33 -39 82 -50 110 -47 118 -58 147 -64 174 -6 27 -6 27
46 26 29 0 75 -4 102 -7z m192 -387 c6 -2 22 -25 35 -52 28 -57 100 -182 140
-240 16 -23 29 -45 29 -49 0 -4 -39 -4 -87 0 -64 5 -89 11 -99 24 -63 80 -207
316 -199 323 4 5 165 -1 181 -6z m248 -392 c13 -21 58 -78 100 -127 42 -48 76
-93 76 -98 0 -7 -17 -8 -46 -4 -26 3 -58 6 -72 6 -18 0 -44 19 -90 68 -66 68
-162 179 -162 188 0 2 38 4 85 4 l85 0 24 -37z m247 -286 c24 -23 75 -70 114
-105 l70 -62 -58 0 c-57 0 -61 2 -155 74 -53 41 -110 88 -126 105 l-30 31 70
0 c69 0 71 -1 115 -43z m234 -203 c11 -8 37 -27 59 -42 61 -43 118 -79 161
-104 40 -22 40 -23 13 -26 -16 -2 -54 10 -90 27 -106 51 -269 151 -262 162 8
13 93 1 119 -17z m975 -183 c0 -4 17 -8 37 -7 32 1 38 -3 47 -27 19 -51 -26
-101 -72 -81 -13 6 -11 8 13 13 25 5 31 12 33 37 4 42 -17 59 -47 37 -18 -12
-22 -22 -17 -44 3 -16 1 -29 -4 -29 -5 0 -10 -12 -12 -27 -2 -14 -8 -28 -14
-30 -8 -3 -9 11 -3 49 5 29 12 68 15 86 3 17 9 32 14 32 6 0 10 -4 10 -9z
m-611 -41 c35 -17 61 -33 58 -36 -5 -5 -137 44 -151 57 -23 20 35 7 93 -21z
m661 -15 c0 -28 -25 -44 -42 -27 -15 15 1 52 23 52 14 0 19 -7 19 -25z"/>
<path d="M2363 4804 c-4 -11 1 -22 12 -30 17 -12 17 -14 2 -14 -14 0 -16 -8
-11 -47 9 -83 13 -93 35 -93 18 0 19 5 14 48 -3 26 -8 67 -9 92 -2 25 -4 48
-5 53 -2 14 -32 7 -38 -9z m28 -17 c-13 -13 -26 -3 -16 12 3 6 11 8 17 5 6 -4
6 -10 -1 -17z m12 -94 c5 -59 2 -72 -10 -60 -11 12 -16 117 -5 117 5 0 12 -26
15 -57z"/>
<path d="M2437 4780 c-21 -25 -21 -37 -2 -56 8 -9 15 -28 15 -43 0 -35 17 -51
52 -51 21 0 28 5 28 20 0 13 -7 20 -20 20 -16 0 -20 7 -20 30 0 20 5 30 15 30
8 0 15 9 15 20 0 13 -7 20 -20 20 -11 0 -20 7 -20 15 0 21 -22 19 -43 -5z m56
-21 c22 0 22 0 -1 -12 -17 -8 -22 -16 -18 -31 3 -12 6 -29 6 -38 0 -11 8 -18
20 -18 11 0 20 -5 20 -11 0 -6 -12 -9 -27 -7 -25 3 -28 8 -31 43 -2 22 -10 45
-18 52 -14 10 -13 14 3 33 15 17 19 18 21 5 2 -8 13 -15 25 -16z"/>
<path d="M2931 4723 c-7 -43 -15 -86 -17 -95 -4 -14 1 -18 20 -18 20 0 26 5
26 23 1 21 1 21 15 -4 13 -25 48 -43 59 -32 3 3 -3 22 -14 43 l-19 37 25 24
c34 31 15 50 -26 26 -21 -13 -29 -14 -26 -5 2 7 7 28 10 46 5 28 3 32 -17 32
-21 0 -24 -7 -36 -77z m35 17 c-4 -27 -4 -50 0 -50 3 0 17 9 31 20 15 11 29
18 32 14 3 -3 -5 -14 -19 -24 -25 -19 -25 -19 -7 -48 19 -34 21 -42 8 -42 -5
0 -18 14 -29 32 l-21 32 -6 -27 c-12 -45 -28 -32 -21 16 4 23 10 61 13 85 3
23 10 42 16 42 6 0 7 -19 3 -50z"/>
<path d="M2206 4783 c-15 -4 -17 -11 -12 -36 4 -18 9 -58 13 -91 l6 -58 48 5
c71 9 89 21 89 63 0 20 -6 37 -14 40 -8 3 -11 15 -8 30 7 36 -14 54 -62 53
-22 -1 -49 -3 -60 -6z m109 -23 c4 -12 2 -27 -5 -35 -9 -10 -7 -15 9 -20 15
-4 21 -15 21 -35 0 -33 -18 -46 -77 -56 l-40 -6 -9 81 c-11 90 -11 89 53 90
34 1 43 -3 48 -19z"/>
<path d="M2248 4763 c-11 -3 -18 -14 -18 -29 0 -20 5 -24 29 -24 32 0 48 24
30 46 -6 8 -14 13 -18 13 -3 -1 -14 -3 -23 -6z m37 -28 c0 -5 -10 -11 -22 -13
-16 -2 -23 2 -23 13 0 11 7 15 23 13 12 -2 22 -7 22 -13z"/>
<path d="M2252 4691 c-8 -4 -12 -19 -10 -32 2 -20 8 -24 32 -22 37 3 50 16 41
42 -7 22 -39 28 -63 12z m56 -19 c4 -12 -37 -33 -50 -25 -15 8 -8 32 10 36 23
6 35 3 40 -11z"/>
<path d="M2540 4703 c0 -71 1 -74 23 -71 19 3 22 10 25 49 2 37 7 48 23 52 11
3 19 14 19 25 0 17 -7 20 -45 20 l-45 0 0 -75z m33 55 c3 -10 8 -10 21 1 9 8
20 10 24 6 4 -4 1 -10 -6 -12 -26 -10 -42 -36 -42 -69 0 -19 -4 -34 -10 -34
-6 0 -10 27 -10 60 0 54 12 79 23 48z"/>
<path d="M2659 4759 c-30 -30 -23 -98 13 -118 34 -19 77 -6 95 29 7 14 13 19
13 12 0 -24 48 -62 78 -62 38 0 60 24 42 45 -10 12 -16 12 -26 4 -21 -17 -46
-3 -42 23 3 20 8 23 41 21 34 -2 38 0 35 19 -7 49 -102 40 -115 -11 l-6 -26
-14 33 c-21 51 -78 67 -114 31z m79 -5 c31 -21 31 -88 1 -104 -23 -13 -70 -5
-81 13 -16 25 -8 76 14 91 12 9 27 16 33 16 6 0 21 -7 33 -16z m157 -15 c11
-16 -1 -22 -23 -10 -29 15 -55 -7 -50 -44 3 -28 6 -30 41 -29 30 1 35 -1 26
-12 -15 -18 -50 -18 -74 0 -21 15 -25 67 -5 90 14 18 75 22 85 5z"/>
<path d="M2681 4736 c-7 -8 -11 -27 -9 -43 2 -22 9 -29 30 -31 23 -3 29 2 34
24 12 46 -28 82 -55 50z m47 -40 c-2 -13 -10 -21 -23 -21 -23 0 -32 30 -14 51
16 19 41 -1 37 -30z"/>
<path d="M2461 4579 c-393 -38 -753 -187 -1076 -445 -317 -254 -575 -658 -693
-1089 -59 -213 -76 -355 -76 -605 0 -201 3 -241 27 -375 48 -265 138 -514 266
-740 24 -42 150 -226 160 -235 3 -3 19 -23 36 -45 46 -62 201 -220 290 -294
506 -426 1188 -559 1819 -356 136 44 382 163 496 240 469 315 788 782 908
1330 30 135 59 351 49 361 -10 10 -46 -124 -61 -231 -75 -507 -383 -1019 -806
-1336 -248 -186 -522 -307 -840 -370 -98 -20 -148 -23 -330 -23 -185 -1 -231
2 -330 22 -158 31 -311 82 -455 151 -103 50 -280 154 -235 139 8 -3 64 -25
123 -48 60 -23 120 -43 133 -44 13 0 24 -4 24 -7 0 -4 33 -15 73 -25 91 -24
336 -24 442 -1 233 51 327 89 510 205 66 43 255 221 255 241 0 5 6 16 13 23
18 17 107 155 107 164 0 4 6 15 13 23 8 9 20 32 27 51 7 19 26 62 40 95 15 33
37 92 49 130 12 39 26 79 30 90 19 44 65 258 81 380 5 39 16 122 25 185 40
293 56 427 69 576 13 148 16 166 42 209 62 101 76 131 76 165 0 19 12 62 28
95 54 115 61 136 76 208 14 67 26 155 27 202 1 75 -36 280 -54 299 -19 20 -8
28 12 10 22 -19 22 -19 14 6 -4 14 -10 27 -14 30 -3 3 -17 27 -31 53 -36 71
-145 197 -220 257 -81 65 -83 66 -40 46 229 -110 494 -332 663 -556 222 -295
357 -620 412 -994 21 -139 24 -149 35 -121 15 40 7 123 -32 300 -103 470 -370
909 -728 1197 -257 207 -615 375 -910 427 -211 37 -357 46 -519 30z m409 -60
c63 -9 290 -57 290 -62 0 -1 -75 -2 -167 -2 -157 -1 -173 -2 -253 -29 -303
-101 -506 -311 -592 -613 -30 -105 -32 -312 -4 -423 38 -149 112 -286 210
-389 l51 -53 -110 8 c-158 13 -368 10 -455 -5 -70 -12 -81 -12 -145 8 -39 12
-106 41 -150 66 -168 93 -245 126 -300 132 -48 5 -60 2 -96 -21 -82 -55 -98
-141 -70 -377 7 -65 11 -157 10 -205 -4 -79 -8 -97 -40 -159 -92 -177 -123
-321 -124 -570 0 -157 3 -191 23 -263 27 -100 199 -458 246 -511 7 -9 19 -27
25 -41 29 -61 -102 97 -203 244 -273 400 -410 973 -345 1446 54 392 166 691
368 985 195 285 438 495 758 655 217 108 472 177 718 194 73 5 268 -4 355 -15z
m68 -371 l3 -85 -48 -6 c-26 -4 -124 -13 -218 -22 -93 -8 -188 -18 -210 -21
-61 -9 -36 6 120 76 77 34 183 82 235 106 52 24 100 42 105 40 6 -1 11 -41 13
-88z m206 44 c44 -21 115 -53 156 -72 41 -18 102 -45 135 -60 33 -16 67 -30
75 -33 25 -9 -29 -8 -114 3 -45 5 -130 14 -190 20 -181 18 -166 9 -166 101 0
52 4 79 11 79 7 0 48 -17 93 -38z m-267 -274 c-13 -24 -47 -87 -76 -140 -28
-53 -75 -138 -104 -188 l-54 -91 -85 128 c-146 220 -168 255 -168 267 0 8 72
20 228 38 125 14 240 26 255 27 l29 1 -25 -42z m488 11 c116 -12 213 -25 217
-28 4 -4 -51 -96 -124 -205 l-131 -198 -18 23 c-10 13 -19 28 -19 32 0 5 -24
50 -53 100 -30 51 -80 141 -112 201 l-58 109 44 -6 c24 -4 139 -16 254 -28z
m225 -394 c0 -191 -1 -204 -18 -197 -34 14 -172 93 -172 99 0 12 180 302 188
303 1 0 2 -92 2 -205z m-1151 122 c24 -39 64 -105 89 -146 l45 -74 -24 -18
c-13 -10 -27 -19 -30 -19 -4 0 -33 -16 -65 -35 -32 -19 -61 -35 -66 -35 -4 0
-8 90 -8 200 0 110 3 200 8 200 4 0 27 -33 51 -73z m665 -282 c-4 -8 -9 -15
-13 -15 -8 0 -54 -41 -158 -141 -40 -38 -74 -69 -77 -69 -5 0 -136 226 -136
235 0 3 88 5 195 5 169 0 194 -2 189 -15z m251 -39 c29 -29 46 -59 54 -92 15
-58 16 -339 1 -462 -10 -91 -34 -143 -120 -262 -26 -36 -52 -74 -58 -85 -9
-17 -11 -17 -12 -3 0 30 -30 50 -65 44 -30 -6 -31 -5 -27 24 5 36 -12 60 -44
60 -22 0 -24 4 -25 55 -1 30 -2 58 -3 63 -7 30 -19 52 -29 53 -7 1 -21 2 -32
3 -21 1 -43 50 -44 98 -1 15 -5 30 -11 33 -18 11 -10 49 23 107 38 69 189 291
226 333 30 34 89 75 110 75 8 0 33 -20 56 -44z m-665 -108 c68 -126 75 -150
45 -156 -11 -2 -23 -9 -26 -14 -3 -5 -20 2 -36 16 -17 14 -33 26 -36 26 -7 0
-130 82 -146 98 -8 8 -26 18 -40 24 -23 8 -24 10 -8 19 9 6 21 8 26 4 5 -3 13
0 17 6 4 8 3 9 -4 5 -7 -4 -12 -5 -12 -2 0 3 27 19 59 36 33 16 62 34 66 40
16 26 38 2 95 -102z m-1329 -170 c53 -28 68 -41 86 -78 12 -25 22 -58 22 -73
1 -27 0 -28 -21 -13 -56 39 -114 4 -162 -98 -35 -73 -89 -252 -88 -289 1 -12
-5 -17 -16 -15 -19 3 -20 9 -46 298 -16 175 -14 206 24 268 19 30 23 32 78 32
47 0 72 -7 123 -32z m842 -194 c38 -26 104 -61 146 -79 174 -74 246 -126 290
-214 27 -53 37 -121 21 -150 -10 -21 -6 -28 54 -88 69 -69 146 -177 172 -239
20 -47 12 -95 -21 -130 -32 -34 -31 -46 3 -66 37 -22 138 -118 151 -145 21
-41 14 -74 -19 -86 -35 -13 -38 -36 -12 -83 9 -17 27 -50 39 -72 13 -22 31
-47 40 -54 10 -7 26 -23 36 -34 17 -20 17 -23 0 -60 -61 -132 -155 -265 -250
-355 -339 -319 -893 -426 -1253 -243 -142 73 -263 181 -345 309 -136 212 -203
348 -239 489 -23 87 -26 118 -26 274 l0 175 70 132 c44 85 67 139 64 152 -6
20 38 81 139 193 38 43 50 51 58 39 5 -8 9 -17 9 -21 0 -4 9 -12 19 -18 16 -8
35 -2 98 30 43 22 84 48 91 57 28 38 1 93 -45 93 -14 0 -23 5 -21 10 7 21 155
141 208 169 51 27 68 30 250 44 107 8 197 15 199 16 3 0 36 -20 74 -45z m-803
-273 c0 -25 -27 -48 -41 -34 -8 8 -7 17 0 32 14 26 41 28 41 2z"/>
<path d="M2370 2680 c0 -5 6 -10 13 -13 21 -8 -5 -24 -50 -31 -40 -6 -65 5
-43 19 21 13 -1 24 -25 13 -42 -19 -42 -71 2 -110 37 -34 224 -53 251 -26 20
20 14 72 -10 95 -35 32 -71 48 -76 34 -2 -6 -10 -11 -18 -11 -7 0 -11 6 -8 14
3 8 -3 16 -15 19 -12 3 -21 1 -21 -3z"/>
<path d="M1725 2508 c-11 -6 -29 -20 -39 -31 -17 -18 -20 -18 -28 -3 -13 24
-56 38 -90 31 -43 -10 -33 -33 27 -62 30 -15 55 -32 55 -38 0 -6 -36 -24 -81
-40 -127 -47 -234 -126 -318 -238 -52 -69 -77 -127 -101 -234 -61 -273 18
-542 213 -726 112 -106 308 -184 487 -194 122 -7 200 4 339 49 151 48 230 104
353 251 116 140 162 335 123 522 -16 75 -85 228 -134 298 -98 137 -192 199
-421 275 -94 31 -120 35 -255 41 l-150 6 26 25 c15 14 37 32 50 41 42 29 -8
54 -56 27z"/>
<path d="M1935 364 c-33 -78 -46 -137 -33 -146 21 -13 29 -9 39 21 9 27 14 29
45 24 58 -10 95 45 62 90 -7 9 -32 23 -56 31 l-42 15 -15 -35z m93 -10 c24
-16 28 -35 11 -66 -9 -17 -17 -19 -53 -14 -39 6 -42 5 -53 -25 -7 -17 -16 -28
-22 -25 -6 4 0 35 17 82 25 71 27 75 52 69 14 -4 35 -13 48 -21z"/>
<path d="M1961 329 c-12 -33 -1 -43 41 -37 35 5 32 49 -4 59 -23 6 -28 3 -37
-22z m54 -9 c0 -8 -10 -16 -22 -18 -18 -3 -23 2 -23 18 0 16 5 21 23 18 12 -2
22 -10 22 -18z"/>
<path d="M3203 382 c-10 -6 -6 -30 18 -100 17 -51 34 -92 37 -92 22 1 34 19
27 41 -7 23 -7 23 12 7 21 -20 58 -24 68 -8 3 5 -10 20 -30 32 -36 23 -38 33
-19 82 12 31 -25 15 -44 -19 -9 -18 -12 -16 -27 23 -18 44 -22 47 -42 34z m36
-52 c15 -51 27 -57 40 -20 13 38 25 39 16 1 -5 -25 -1 -32 26 -52 18 -12 27
-25 21 -27 -6 -2 -26 7 -43 19 l-32 23 6 -33 c10 -48 -12 -35 -33 19 -24 61
-34 110 -22 110 5 0 14 -18 21 -40z"/>
<path d="M3118 294 c-23 -12 -28 -21 -28 -53 0 -42 32 -81 66 -81 28 0 64 28
64 51 0 24 -17 24 -43 2 -18 -17 -19 -17 -33 2 -22 29 -13 50 20 50 32 0 47
22 25 36 -20 12 -40 10 -71 -7z m67 -3 c3 -5 -9 -11 -27 -13 -27 -2 -34 -8
-36 -29 -2 -15 5 -32 17 -43 19 -18 22 -18 46 -2 20 13 25 14 25 3 0 -13 -39
-37 -60 -37 -21 0 -50 41 -50 69 0 43 66 83 85 52z"/>
<path d="M2075 275 c-34 -33 -33 -77 1 -104 15 -12 37 -21 50 -21 43 0 81 79
56 116 -10 15 -47 34 -67 34 -9 0 -27 -11 -40 -25z m83 -1 c26 -18 28 -44 7
-84 -19 -36 -55 -40 -85 -10 -23 23 -25 42 -9 73 22 40 50 47 87 21z"/>
<path d="M2094 256 c-3 -8 -4 -27 -2 -43 2 -22 8 -28 28 -28 31 0 51 45 30 69
-16 20 -49 21 -56 2z m54 -22 c3 -23 -21 -49 -38 -39 -11 7 -14 48 -3 59 13
13 38 1 41 -20z"/>
<path d="M2467 275 c32 -15 49 -32 40 -42 -3 -3 -16 2 -28 10 -38 27 -79 -3
-79 -58 0 -17 5 -36 12 -43 15 -15 61 -15 76 0 17 17 28 2 12 -17 -20 -24 -86
-20 -104 7 -25 35 -20 94 9 123 16 16 19 25 10 25 -39 0 -65 -91 -41 -139 26
-50 123 -60 141 -14 9 26 -11 39 -38 24 -38 -21 -62 -11 -65 27 -2 18 2 40 9
48 15 18 49 18 63 -1 10 -14 14 -14 31 -1 20 15 20 15 0 34 -11 11 -33 22 -50
25 l-30 6 32 -14z"/>
<path d="M2785 280 c-4 -6 -4 -49 0 -95 7 -81 9 -85 31 -85 21 0 24 5 24 40 0
47 21 46 40 -1 11 -27 38 -38 53 -23 3 3 -3 22 -13 41 -12 23 -17 46 -13 69 8
48 -9 64 -68 64 -26 0 -51 -5 -54 -10z m113 -34 c2 -16 -2 -32 -8 -36 -8 -5
-5 -18 11 -44 12 -20 18 -40 14 -44 -4 -4 -10 -1 -12 6 -11 31 -50 65 -67 59
-13 -5 -16 -14 -10 -42 5 -27 3 -35 -8 -35 -11 0 -17 17 -22 61 -12 115 -13
110 47 107 49 -3 52 -5 55 -32z"/>
<path d="M2815 233 c9 -36 8 -35 39 -24 16 7 26 18 26 31 0 16 -7 20 -36 20
-34 0 -36 -1 -29 -27z m55 3 c0 -7 -9 -16 -20 -19 -15 -4 -20 0 -20 14 0 12 7
19 20 19 11 0 20 -6 20 -14z"/>
<path d="M2983 270 c-69 -28 -51 -140 23 -140 49 0 78 32 70 78 -8 54 -47 80
-93 62z m71 -32 c22 -32 20 -64 -6 -82 -60 -42 -123 19 -88 85 15 28 74 26 94
-3z"/>
<path d="M2987 239 c-21 -12 -22 -52 -1 -73 18 -18 17 -18 38 -10 23 9 21 70
-2 83 -11 6 -24 6 -35 0z m43 -38 c0 -37 -13 -46 -34 -25 -27 26 -19 54 16 54
13 0 18 -8 18 -29z"/>
<path d="M2693 263 c-7 -2 -13 -11 -13 -19 0 -8 -4 -14 -10 -14 -5 0 -10 -7
-10 -15 0 -8 4 -15 9 -15 6 0 13 -21 17 -46 5 -34 12 -48 30 -56 30 -14 54 -4
54 22 0 17 -4 20 -20 15 -17 -6 -20 -2 -20 28 0 26 5 36 20 40 25 7 16 37 -11
37 -10 0 -19 7 -19 15 0 15 -6 17 -27 8z m17 -23 c0 -6 10 -15 23 -20 17 -7
18 -9 5 -9 -14 -1 -18 -10 -18 -41 0 -33 4 -42 23 -49 20 -8 20 -10 4 -16 -28
-12 -47 13 -47 61 0 35 -4 44 -17 45 -11 0 -13 3 -5 6 6 2 12 11 12 19 0 8 5
14 10 14 6 0 10 -5 10 -10z"/>
<path d="M2567 227 c-18 -6 -27 -15 -24 -26 3 -16 9 -17 40 -6 9 4 17 3 17 -3
0 -6 -14 -13 -30 -17 -21 -5 -32 -14 -36 -31 -10 -38 10 -52 71 -52 l55 1 -6
56 c-9 79 -30 98 -87 78z m74 -67 c7 -62 5 -67 -14 -52 -9 8 -17 8 -24 1 -6
-6 -21 -9 -34 -7 -18 2 -24 9 -24 27 0 13 6 26 13 29 7 2 10 -2 7 -11 -9 -22
21 -42 40 -27 22 18 18 40 -7 41 l-23 0 23 10 c33 13 22 34 -17 33 -17 -1 -28
2 -25 8 3 5 22 8 42 6 37 -3 37 -3 43 -58z m-36 -20 c-3 -5 -10 -10 -16 -10
-5 0 -9 5 -9 10 0 6 7 10 16 10 8 0 12 -4 9 -10z"/>
</g>
</svg>
